<svg xmlns="http://www.w3.org/2000/svg" fill="none" viewBox="0 0 18 18"><path fill="currentColor" fill-rule="evenodd" d="M3.869.858c3.549-1.903 7.95-.534 9.83 3.058a7.44 7.44 0 0 1-.229 7.3l4.132 3.166c.456.35.532 1.012.168 1.457l-1.466 1.793a.996.996 0 0 1-1.521.028l-3.603-4.088q-.244.156-.502.295c-3.549 1.904-7.95.535-9.83-3.058S.32 2.762 3.868.86m1.627 3.058c-2.08 1.116-2.873 3.728-1.77 5.834 1.102 2.106 3.682 2.908 5.762 1.792s2.873-3.727 1.771-5.833S7.577 2.8 5.496 3.916" clip-rule="evenodd"/></svg>