<svg xmlns="http://www.w3.org/2000/svg" fill="none" overflow="visible" preserveAspectRatio="none" style="display:block" viewBox="0 0 31 29"><g clip-path="url(#a)"><path fill="var(--fill-0, black)" d="M30.897 17.008c-.416-5.096-3.963-8.251-3.963-8.251l2.137-2.57-3.34-3.82.79 3.578-1.578.708C21.632 4.466 16.66 4.63 16.66 4.63s-4.965-.142-7.82 1.678L5.997 4.042 10.396 0 2.429 4.53l2.448 4.287s-3.09 2.757-3.257 7.745c-.139 4.163.31 6.654 1.888 9S9.86 29 12.432 29h8.453c2.571 0 6.785-1.092 8.362-3.438s1.968-4.618 1.648-8.554z"/><path fill="url(#b)" d="M29.298 17.008c-.416-5.096-3.963-8.251-3.963-8.251l2.137-2.57-3.34-3.82.79 3.578-1.578.708c-3.312-2.187-8.283-2.023-8.283-2.023s-4.965-.142-7.82 1.678L4.398 4.042 8.797 0 .832 4.53 3.28 8.817S.19 11.574.025 16.564c-.139 4.163.31 6.654 1.887 9s6.353 3.438 8.924 3.438h8.454c2.571 0 6.785-1.092 8.362-3.438s1.968-4.618 1.648-8.554z"/><path fill="var(--fill-0, #810115)" d="M10.49 15.54c1.283 0 2.323-1.015 2.323-2.266s-1.04-2.266-2.324-2.266-2.324 1.015-2.324 2.266 1.04 2.266 2.324 2.266m10.066-.663a2.226 2.226 0 0 0 0-3.205 2.367 2.367 0 0 0-3.287 0 2.226 2.226 0 0 0 0 3.205c.907.885 2.38.885 3.287 0"/><path fill="var(--fill-0, #0F0002)" d="M10.49 11.008c-1.283 0-2.325 1.013-2.325 2.266 0 .307.064.599.176.865a2.32 2.32 0 0 1 2.147-1.398c.968 0 1.797.579 2.146 1.398.114-.266.176-.558.176-.865 0-1.25-1.04-2.266-2.324-2.266zm8.421 0c-1.283 0-2.324 1.013-2.324 2.266 0 .307.064.599.176.865a2.32 2.32 0 0 1 2.146-1.398c.969 0 1.798.579 2.147 1.398a2.2 2.2 0 0 0 .176-.865c0-1.25-1.04-2.266-2.325-2.266z"/><path fill="var(--fill-0, #820115)" d="M19.099 18.856 14.7 15.37l-4.397 3.486-3.9-3.316c.042 8.98 3.9 12.417 3.9 12.417l4.397-2.386 4.398 2.386s3.857-3.438 3.899-12.417z"/><path fill="var(--fill-0, black)" d="m10.304 20.391 4.397-3.485L19.1 20.39l3.85-3.275q.046-.759.049-1.578l-3.9 3.316-4.397-3.486-4.397 3.486-3.9-3.316q.006.819.05 1.578z"/><g filter="url(#c)"><path fill="var(--fill-0, #FFB798)" d="M3.455 9.51s3.76-4.158 8.242-4.449c0 0-1.68 3.546-4.944 4.287-1.813.413-3.298.163-3.298.163"/></g></g><defs><linearGradient id="b" x1="14.701" x2="14.701" y1="30.178" y2="6.553" gradientUnits="userSpaceOnUse"><stop stop-color="#FF2725"/><stop offset="1" stop-color="#FFB13B"/></linearGradient><clipPath id="a"><path fill="#fff" d="M0 0h31v29H0z"/></clipPath><filter id="c" width="16.242" height="12.525" x="-.545" y="5.061" color-interpolation-filters="sRGB" filterUnits="userSpaceOnUse"><feFlood flood-opacity="0" result="BackgroundImageFix"/><feColorMatrix in="SourceAlpha" result="hardAlpha" values="0 0 0 0 0 0 0 0 0 0 0 0 0 0 0 0 0 0 127 0"/><feOffset dy="4"/><feGaussianBlur stdDeviation="2"/><feComposite in2="hardAlpha" operator="out"/><feColorMatrix values="0 0 0 0 0 0 0 0 0 0 0 0 0 0 0 0 0 0 0.25 0"/><feBlend in2="BackgroundImageFix" result="effect1_dropShadow_0_6"/><feBlend in="SourceGraphic" in2="effect1_dropShadow_0_6" result="shape"/></filter></defs></svg>